HIERARCHY
ROOT hip
{
	OFFSET 0.000000 0.000000 0.000000 
	CHANNELS 6 Xposition Yposition Zposition Xrotation Zrotation Yrotation
	JOINT abdomen
	{
		OFFSET 0.000000 3.402643 0.000000 
		CHANNELS 3 Xrotation Zrotation Yrotation
		JOINT chest
		{
			OFFSET 0.000000 8.438565 -0.680529 
			CHANNELS 3 Xrotation Zrotation Yrotation
			JOINT neck
			{
				OFFSET 0.000000 10.207942 -0.272212 
				CHANNELS 3 Xrotation Zrotation Yrotation
				JOINT head
				{
					OFFSET 0.000000 3.130431 0.000000 
					CHANNELS 3 Xrotation Zrotation Yrotation
					End Site
					{
						OFFSET 0.000000 3.130435 0.000000 
					}
				}
			}
			JOINT lCollar
			{
				OFFSET 3.470700 6.669187 -0.816635 
				CHANNELS 3 Yrotation Zrotation Xrotation
				JOINT lShldr
				{
					OFFSET 3.198488 0.000000 0.000000 
					CHANNELS 3 Zrotation Yrotation Xrotation
					JOINT lForeArm
					{
						OFFSET 10.139888 0.000000 0.000000 
						CHANNELS 3 Yrotation Zrotation Xrotation
						JOINT lHand
						{
							OFFSET 8.370511 0.000000 0.000000 
							CHANNELS 3 Zrotation Yrotation Xrotation
							End Site
							{
								OFFSET 4.083176 0.000000 0.000000 
							}
						}
					}
				}
			}
			JOINT rCollar
			{
				OFFSET -3.470700 6.669187 -0.816635 
				CHANNELS 3 Yrotation Zrotation Xrotation
				JOINT rShldr
				{
					OFFSET -3.198488 0.000000 0.000000 
					CHANNELS 3 Zrotation Yrotation Xrotation
					JOINT rForeArm
					{
						OFFSET -10.139888 0.000000 0.000000 
						CHANNELS 3 Yrotation Zrotation Xrotation
						JOINT rHand
						{
							OFFSET -8.370511 0.000000 0.000000 
							CHANNELS 3 Zrotation Yrotation Xrotation
							End Site
							{
								OFFSET -4.083176 0.000000 0.000000 
							}
						}
					}
				}
			}
		}
	}
	JOINT lThigh
	{
		OFFSET 5.308129 -1.633274 1.361059 
		CHANNELS 3 Xrotation Zrotation Yrotation
		JOINT lShin
		{
			OFFSET -2.041588 -20.007561 0.000000 
			CHANNELS 3 Xrotation Zrotation Yrotation
			JOINT lFoot
			{
				OFFSET 0.000000 -19.190928 -1.224953 
				CHANNELS 3 Xrotation Yrotation Zrotation
				End Site
				{
					OFFSET 0.000000 -2.449906 4.627600 
				}
			}
		}
	}
	JOINT rThigh
	{
		OFFSET -5.308129 -1.633274 1.361059 
		CHANNELS 3 Xrotation Zrotation Yrotation
		JOINT rShin
		{
			OFFSET 2.041588 -20.007561 0.000000 
			CHANNELS 3 Xrotation Zrotation Yrotation
			JOINT rFoot
			{
				OFFSET 0.000000 -19.190928 -1.224953 
				CHANNELS 3 Xrotation Yrotation Zrotation
				End Site
				{
					OFFSET 0.000000 -2.449906 4.627600 
				}
			}
		}
	}
}
MOTION
Frames: 16
Frame Time: 0.016667
-0.069017 43.249275 0.189043 -3.346630 -3.646130 12.722400 -20.717300 2.840540 -3.161380 15.784300 4.758910 -1.294720 14.405100 16.128300 -12.110600 14.440500 11.125100 -5.758500 2.000000 -2.000000 0.000000 -84.725700 -11.580000 -166.761993 96.846298 -0.197388 0.155246 0.048901 -0.036753 -150.164001 -2.000000 2.000000 0.000000 -103.663002 176.563995 -7.384400 -103.272003 0.185704 0.113805 -0.061696 0.047829 -154.264999 -6.712402 1.007391 0.455770 36.214939 2.873405 2.528106 -20.700224 -1.528054 -1.158091 -14.180882 5.861299 -0.149906 37.604481 -2.363439 -2.800500 -14.582427 -1.927535 -1.016643 
0.051497 43.224693 0.134382 -3.482850 -3.440910 12.650300 -20.677000 2.760360 -3.097110 15.764900 4.729580 -1.274370 14.491000 16.074200 -12.074400 14.479500 11.104500 -5.744670 2.000000 -2.000000 0.000000 -84.775398 -13.376400 -166.533005 99.150902 -0.191553 0.154425 0.049220 -0.038083 -150.651993 -2.000000 2.000000 0.000000 -104.112000 175.324005 -7.264260 -105.644997 0.180613 0.112493 -0.061769 0.048064 -154.352997 -6.466422 0.728209 0.673271 36.128380 2.855969 2.533681 -20.727539 -1.678857 -1.193648 -14.298074 5.502350 -0.219597 38.212688 -2.355899 -2.824891 -14.658563 -1.803130 -0.973869 
0.159378 43.194969 0.077791 -3.638830 -3.294140 12.601600 -20.889799 2.610650 -3.023420 15.374000 4.590610 -1.274750 14.610400 16.081499 -11.861800 14.401800 11.155400 -5.702270 2.000000 -2.000000 0.000000 -84.707603 -14.635700 -166.341995 101.348000 -0.186025 0.153425 0.049871 -0.040654 -151.598999 -2.000000 2.000000 0.000000 -104.327003 174.298996 -7.252060 -108.291000 0.175004 0.110782 -0.062749 0.051080 -155.485992 -6.367298 0.495150 0.733580 36.284428 2.865036 2.534279 -20.792162 -1.808714 -1.296093 -14.507852 5.243789 -0.237510 38.957287 -2.349493 -2.837247 -14.720323 -1.780195 -0.973740 
0.267257 43.165234 0.021201 -3.794760 -3.137650 12.541700 -21.093100 2.464960 -2.938450 14.983100 4.461320 -1.264430 14.719800 16.089701 -11.655300 14.314100 11.206700 -5.652140 2.000000 -2.000000 0.000000 -84.639999 -15.904800 -166.154007 103.544998 -0.180540 0.152214 0.050571 -0.043241 -152.557007 -2.000000 2.000000 0.000000 -104.551003 173.283997 -7.249650 -110.938004 0.169481 0.108814 -0.063780 0.054051 -156.608994 -6.232951 0.259490 0.771496 36.363194 2.864399 2.542619 -20.826178 -1.960464 -1.366101 -14.639837 4.982620 -0.236494 39.587090 -2.329568 -2.895299 -14.697082 -1.726433 -0.966320 
0.393739 43.120960 -0.062281 -3.822950 -2.806250 12.521200 -21.033199 2.384150 -2.903760 14.982700 4.509910 -1.259390 15.002200 16.031300 -11.467700 14.463300 11.201200 -5.563180 2.000000 -2.000000 0.000000 -84.924400 -17.730600 -165.964005 105.546997 -0.175586 0.150928 0.051520 -0.046496 -153.766998 -2.000000 2.000000 0.000000 -105.068001 171.604004 -7.341910 -112.783997 0.165686 0.107292 -0.064143 0.055055 -156.990005 -6.205697 -0.259054 0.794441 36.396038 2.829923 2.560477 -20.813688 -1.976119 -1.397822 -15.056741 4.359504 -0.464499 40.421841 -2.306647 -2.938563 -14.604253 -1.502235 -0.921920 
0.520223 43.076565 -0.145762 -3.841480 -2.474900 12.500000 -20.973200 2.303280 -2.869230 14.982300 4.558510 -1.264110 15.283800 15.973100 -11.270700 14.602600 11.196000 -5.478040 2.000000 -2.000000 0.000000 -85.209000 -19.556200 -165.755005 107.549004 -0.170680 0.149469 0.052529 -0.049705 -154.968994 -2.000000 2.000000 0.000000 -105.584999 169.923996 -7.464620 -114.619003 0.161961 0.105657 -0.064502 0.056029 -157.360992 -6.174253 -0.781688 0.816781 36.357212 2.819088 2.547871 -20.745331 -1.964249 -1.411428 -15.528378 3.740278 -0.685409 41.383602 -2.290793 -2.990311 -14.537733 -1.289820 -0.862472 
0.629337 43.032810 -0.188665 -3.967780 -2.201750 12.564700 -20.757000 2.262980 -2.893490 15.295100 4.658110 -1.277480 15.362600 15.791100 -11.182100 14.639800 11.127300 -5.424210 2.000000 -2.000000 0.000000 -85.571899 -21.372200 -165.546005 109.003998 -0.167148 0.148302 0.052923 -0.050900 -155.417999 -2.000000 2.000000 0.000000 -105.964996 168.000000 -7.323080 -115.528000 0.160138 0.104804 -0.064341 0.055594 -157.195007 -6.008685 -1.123832 0.917526 36.398731 2.795120 2.559691 -20.809380 -2.180843 -1.521390 -15.899806 3.232951 -0.986638 42.425175 -2.251790 -3.051396 -14.392047 -1.047804 -0.808560 
0.738450 42.988918 -0.231570 -4.103910 -1.938380 12.629200 -20.530701 2.210180 -2.923170 15.607900 4.757670 -1.289770 15.442300 15.618600 -11.091500 14.676500 11.049100 -5.374120 2.000000 -2.000000 0.000000 -85.964203 -23.188101 -165.317001 110.469002 -0.163623 0.147037 0.053327 -0.052091 -155.867004 -2.000000 2.000000 0.000000 -106.345001 166.067001 -7.191310 -116.426003 0.158349 0.103932 -0.064190 0.055183 -157.039001 -5.940972 -1.479685 0.986240 36.537430 2.787674 2.584304 -20.870081 -2.406215 -1.637407 -16.316700 2.737704 -1.289665 43.485451 -2.208838 -3.089527 -14.211431 -0.836240 -0.771201 
0.841123 42.934479 -0.278122 -4.230390 -1.704330 12.586900 -20.627399 2.108930 -2.859430 15.470800 4.746950 -1.280720 15.513300 15.423000 -10.924000 14.535500 11.006200 -5.350470 2.000000 -2.000000 0.000000 -86.287201 -24.085501 -164.865997 111.572998 -0.160989 0.146025 0.063397 -0.062735 -156.199005 -2.000000 2.000000 0.000000 -106.529999 165.324997 -7.130870 -117.617996 0.155997 0.102733 -0.064030 0.054746 -156.873001 -5.771756 -1.801705 1.016899 36.646183 2.771156 2.577403 -20.976862 -2.564657 -1.725551 -16.769403 2.298420 -1.374466 44.743748 -2.141390 -3.161437 -13.959422 -0.637126 -0.729498 
0.943794 42.880039 -0.324675 -4.366670 -1.470330 12.534100 -20.714300 2.007980 -2.794850 15.333800 4.726480 -1.270730 15.583700 15.228100 -10.747300 14.404500 10.962900 -5.314980 2.000000 -2.000000 0.000000 -86.619904 -24.982800 -164.395004 112.685997 -0.158353 0.144953 0.063706 -0.063612 -156.531006 -2.000000 2.000000 0.000000 -106.705002 164.572998 -7.070420 -118.808998 0.153671 0.101485 -0.063872 0.054309 -156.707001 -5.663707 -2.122312 1.061452 36.765362 2.762638 2.601941 -21.062407 -2.730396 -1.806216 -17.275352 1.870992 -1.451293 45.953125 -2.075659 -3.243020 -13.608573 -0.416301 -0.676839 
1.041751 42.822132 -0.354360 -4.473640 -1.197510 12.330000 -20.656601 1.994150 -2.692610 15.372100 4.833750 -1.218570 15.771700 15.200100 -10.530800 14.445300 10.990300 -5.224230 2.000000 -2.000000 0.000000 -87.089699 -26.026899 -164.042007 113.135002 -0.157295 0.144505 0.063798 -0.063870 -156.628998 -2.000000 2.000000 0.000000 -107.095001 163.264008 -7.330880 -118.994003 0.153311 0.101286 -0.062611 0.050665 -155.330002 -5.600660 -2.526676 1.235771 36.944160 2.733533 2.609608 -21.088871 -2.676522 -1.796918 -17.874836 1.464013 -1.224115 47.356922 -2.016650 -3.310870 -13.145061 -0.509210 -0.678343 
1.139705 42.764084 -0.384047 -4.580660 -0.915037 12.124100 -20.589300 1.993020 -2.584300 15.420300 4.941120 -1.175200 15.958300 15.163100 -10.309800 14.496100 11.017300 -5.131580 2.000000 -2.000000 0.000000 -87.569298 -27.070999 -163.673996 113.574997 -0.156263 0.144060 0.063900 -0.064153 -156.735992 -2.000000 2.000000 0.000000 -107.494003 161.955002 -7.601130 -119.190002 0.152933 0.101076 -0.061437 0.046993 -153.953003 -5.512112 -2.930292 1.397225 37.091782 2.726757 2.614811 -21.127878 -2.594621 -1.793271 -18.483391 1.056417 -0.993158 48.672298 -1.964468 -3.381750 -12.603441 -0.581946 -0.678941 
1.225678 42.692528 -0.390949 -4.814890 -0.768762 12.047200 -20.569201 1.936200 -2.541130 15.312800 4.901380 -1.171130 16.315100 14.908100 -10.156200 14.621300 10.906900 -5.077880 2.000000 -2.000000 0.000000 -87.911598 -27.656300 -163.389008 113.779999 -0.155783 0.143849 0.063854 -0.064024 -156.686996 -2.000000 2.000000 0.000000 -107.591003 161.007004 -7.559770 -119.248001 0.152819 0.101012 -0.061238 0.046338 -153.709000 -5.370940 -3.192546 1.379036 37.387398 2.712987 2.634645 -21.284981 -2.439440 -1.748425 -18.916338 0.822283 -0.820350 49.801548 -1.910121 -3.444764 -12.441955 -1.032359 -0.787332 
1.311650 42.621101 -0.397854 -5.039350 -0.612856 11.968100 -20.549299 1.888510 -2.501420 15.195500 4.861560 -1.167750 16.670601 14.653900 -9.993360 14.746100 10.787000 -5.018500 2.000000 -2.000000 0.000000 -88.263802 -28.241600 -163.095001 113.985001 -0.155304 0.143637 0.063817 -0.063921 -156.647995 -2.000000 2.000000 0.000000 -107.678001 160.059998 -7.508650 -119.306999 0.152706 0.100949 -0.061050 0.045710 -153.473999 -5.228024 -3.450577 1.331467 37.692528 2.696778 2.643725 -21.422808 -2.262137 -1.711449 -19.415148 0.590503 -0.641359 51.067604 -1.842651 -3.497131 -12.376653 -1.452276 -0.880247 
1.363551 42.581593 -0.360653 -5.244490 -0.661283 12.062600 -20.375200 2.002330 -2.503750 15.380800 4.979720 -1.153620 17.173000 15.275500 -9.597630 15.137000 11.108300 -4.800830 2.000000 -2.000000 0.000000 -88.752602 -28.875401 -162.692993 113.935997 -0.155418 0.143688 0.063817 -0.063921 -156.647995 -2.000000 2.000000 0.000000 -107.950996 159.093002 -7.633290 -119.325996 0.152668 0.100928 -0.060949 0.045369 -153.348007 -5.141746 -3.465801 1.156451 38.026318 2.698081 2.667713 -21.550882 -2.071371 -1.665468 -19.694365 0.673611 -0.546083 51.726093 -1.793683 -3.533508 -12.850746 -2.233662 -1.082130 
1.415451 42.542080 -0.323451 -5.439860 -0.699959 12.156500 -20.210600 2.103590 -2.511690 15.566100 5.107620 -1.138740 17.691200 15.890900 -9.195400 15.539500 11.437300 -4.586600 2.000000 -2.000000 0.000000 -89.251297 -29.509300 -162.291000 113.887001 -0.155532 0.143738 0.063826 -0.063947 -156.658005 -2.000000 2.000000 0.000000 -108.223000 158.126007 -7.757940 -119.346001 0.152631 0.100907 -0.060849 0.045028 -153.220993 -4.957611 -3.467205 0.971759 38.185005 2.688392 2.701159 -21.588839 -1.894577 -1.591665 -19.994232 0.753548 -0.433231 52.433495 -1.752116 -3.581564 -13.347723 -3.027359 -1.298971 
